<?xml version="1.0" encoding="UTF-8" standalone="no"?>
<svg
   xmlns:dc="http://purl.org/dc/elements/1.1/"
   xmlns:cc="http://creativecommons.org/ns#"
   xmlns:rdf="http://www.w3.org/1999/02/22-rdf-syntax-ns#"
   xmlns:svg="http://www.w3.org/2000/svg"
   xmlns="http://www.w3.org/2000/svg"
   xmlns:xlink="http://www.w3.org/1999/xlink"
   xmlns:sodipodi="http://sodipodi.sourceforge.net/DTD/sodipodi-0.dtd"
   xmlns:inkscape="http://www.inkscape.org/namespaces/inkscape"
   version="1.0"
   width="105"
   height="105"
   viewBox="0 0 84.000003 84.000001"
   preserveAspectRatio="xMidYMid meet"
   id="svg3055"
   inkscape:version="0.48.5 r10040"
   sodipodi:docname="supervisorphp_favicon.svg"
   inkscape:export-filename="/home/mark/Letöltések/supervisorphp_favicon.png"
   inkscape:export-xdpi="514.28998"
   inkscape:export-ydpi="514.28998">
  <defs
     id="defs3085">
    <linearGradient
       x1="150"
       y1="84"
       x2="299"
       y2="84"
       id="linearGradient3998"
       gradientUnits="userSpaceOnUse">
      <stop
         id="stop4000"
         style="stop-color:#dddce9;stop-opacity:1"
         offset="0" />
      <stop
         id="stop4002"
         style="stop-color:#ba0012;stop-opacity:1;"
         offset="0.52317321" />
      <stop
         id="stop4004"
         style="stop-color:#000000;stop-opacity:1"
         offset="1" />
    </linearGradient>
    <radialGradient
       gradientTransform="matrix(1.5089497,0,0,1.3582164,-39.028917,76.957747)"
       gradientUnits="userSpaceOnUse"
       xlink:href="#linearGradient3798"
       id="radialGradient3870"
       fy="-48.544521"
       fx="77.914261"
       r="146"
       cy="-48.544521"
       cx="77.914261" />
    <linearGradient
       gradientUnits="userSpaceOnUse"
       id="linearGradient3798"
       y2="84"
       x2="299"
       y1="84"
       x1="150">
      <stop
         offset="0"
         style="stop-color:#dddce9;stop-opacity:1"
         id="stop3800" />
      <stop
         offset="0.37"
         style="stop-color:#5664a3;stop-opacity:1"
         id="stop3802" />
      <stop
         offset="1"
         style="stop-color:#000000;stop-opacity:1"
         id="stop3804" />
    </linearGradient>
    <linearGradient
       inkscape:collect="always"
       xlink:href="#linearGradient3998"
       id="linearGradient3996"
       x1="1294.2504"
       y1="978.76178"
       x2="1294.2504"
       y2="-392.15146"
       gradientUnits="userSpaceOnUse" />
    <linearGradient
       inkscape:collect="always"
       xlink:href="#linearGradient3998"
       id="linearGradient4008"
       gradientUnits="userSpaceOnUse"
       x1="1294.2504"
       y1="978.76178"
       x2="1294.2504"
       y2="-392.15146" />
    <linearGradient
       inkscape:collect="always"
       xlink:href="#linearGradient3998"
       id="linearGradient4010"
       gradientUnits="userSpaceOnUse"
       x1="1294.2504"
       y1="978.76178"
       x2="1294.2504"
       y2="-392.15146" />
    <linearGradient
       inkscape:collect="always"
       xlink:href="#linearGradient3998"
       id="linearGradient4012"
       gradientUnits="userSpaceOnUse"
       x1="1294.2504"
       y1="978.76178"
       x2="1294.2504"
       y2="-392.15146" />
    <linearGradient
       inkscape:collect="always"
       xlink:href="#linearGradient3998"
       id="linearGradient4014"
       gradientUnits="userSpaceOnUse"
       x1="1294.2504"
       y1="978.76178"
       x2="1294.2504"
       y2="-392.15146" />
    <linearGradient
       inkscape:collect="always"
       xlink:href="#linearGradient3998"
       id="linearGradient4016"
       gradientUnits="userSpaceOnUse"
       x1="1294.2504"
       y1="978.76178"
       x2="1294.2504"
       y2="-392.15146" />
    <linearGradient
       inkscape:collect="always"
       xlink:href="#linearGradient3998"
       id="linearGradient4018"
       gradientUnits="userSpaceOnUse"
       x1="1294.2504"
       y1="978.76178"
       x2="1294.2504"
       y2="-392.15146" />
    <linearGradient
       inkscape:collect="always"
       xlink:href="#linearGradient3998"
       id="linearGradient4020"
       gradientUnits="userSpaceOnUse"
       x1="1294.2504"
       y1="978.76178"
       x2="1294.2504"
       y2="-392.15146" />
    <linearGradient
       inkscape:collect="always"
       xlink:href="#linearGradient3998"
       id="linearGradient4022"
       gradientUnits="userSpaceOnUse"
       x1="1294.2504"
       y1="978.76178"
       x2="1294.2504"
       y2="-392.15146" />
    <linearGradient
       inkscape:collect="always"
       xlink:href="#linearGradient3998"
       id="linearGradient4024"
       gradientUnits="userSpaceOnUse"
       x1="1294.2504"
       y1="978.76178"
       x2="1294.2504"
       y2="-392.15146" />
    <linearGradient
       inkscape:collect="always"
       xlink:href="#linearGradient3998"
       id="linearGradient4026"
       gradientUnits="userSpaceOnUse"
       x1="1294.2504"
       y1="978.76178"
       x2="1294.2504"
       y2="-392.15146" />
    <linearGradient
       inkscape:collect="always"
       xlink:href="#linearGradient3998"
       id="linearGradient4028"
       gradientUnits="userSpaceOnUse"
       x1="1294.2504"
       y1="978.76178"
       x2="1294.2504"
       y2="-392.15146" />
    <linearGradient
       inkscape:collect="always"
       xlink:href="#linearGradient3998"
       id="linearGradient3129"
       gradientUnits="userSpaceOnUse"
       x1="1294.2504"
       y1="978.76178"
       x2="1294.2504"
       y2="-392.15146"
       gradientTransform="matrix(0.1,0,0,-0.1,-6.2218966,51.955284)" />
    <linearGradient
       inkscape:collect="always"
       xlink:href="#linearGradient3998"
       id="linearGradient3132"
       gradientUnits="userSpaceOnUse"
       x1="1294.2504"
       y1="978.76178"
       x2="1294.2504"
       y2="-392.15146"
       gradientTransform="matrix(0.1,0,0,-0.1,-6.2218966,51.955284)" />
    <linearGradient
       inkscape:collect="always"
       xlink:href="#linearGradient3998"
       id="linearGradient3135"
       gradientUnits="userSpaceOnUse"
       x1="1294.2504"
       y1="978.76178"
       x2="1294.2504"
       y2="-392.15146"
       gradientTransform="matrix(0.1,0,0,-0.1,-6.2218966,51.955284)" />
    <linearGradient
       inkscape:collect="always"
       xlink:href="#linearGradient3998"
       id="linearGradient3138"
       gradientUnits="userSpaceOnUse"
       x1="1294.2504"
       y1="978.76178"
       x2="1294.2504"
       y2="-392.15146"
       gradientTransform="matrix(0.1,0,0,-0.1,-6.2218966,51.955284)" />
    <linearGradient
       inkscape:collect="always"
       xlink:href="#linearGradient3998"
       id="linearGradient3141"
       gradientUnits="userSpaceOnUse"
       x1="1294.2504"
       y1="978.76178"
       x2="1294.2504"
       y2="-392.15146"
       gradientTransform="matrix(0.1,0,0,-0.1,-6.2218966,51.955284)" />
    <linearGradient
       inkscape:collect="always"
       xlink:href="#linearGradient3998"
       id="linearGradient3144"
       gradientUnits="userSpaceOnUse"
       x1="1294.2504"
       y1="978.76178"
       x2="1294.2504"
       y2="-392.15146"
       gradientTransform="matrix(0.1,0,0,-0.1,-6.2218966,51.955284)" />
    <linearGradient
       inkscape:collect="always"
       xlink:href="#linearGradient3998"
       id="linearGradient3147"
       gradientUnits="userSpaceOnUse"
       x1="1294.2504"
       y1="978.76178"
       x2="1294.2504"
       y2="-392.15146"
       gradientTransform="matrix(0.1,0,0,-0.1,-6.2218966,51.955284)" />
    <linearGradient
       inkscape:collect="always"
       xlink:href="#linearGradient3998"
       id="linearGradient3150"
       gradientUnits="userSpaceOnUse"
       x1="1294.2504"
       y1="978.76178"
       x2="1294.2504"
       y2="-392.15146"
       gradientTransform="matrix(0.1,0,0,-0.1,-6.2218966,51.955284)" />
    <linearGradient
       inkscape:collect="always"
       xlink:href="#linearGradient3998"
       id="linearGradient3153"
       gradientUnits="userSpaceOnUse"
       x1="1294.2504"
       y1="978.76178"
       x2="1294.2504"
       y2="-392.15146"
       gradientTransform="matrix(0.1,0,0,-0.1,-6.2218966,51.955284)" />
    <linearGradient
       inkscape:collect="always"
       xlink:href="#linearGradient3998"
       id="linearGradient3156"
       gradientUnits="userSpaceOnUse"
       x1="1294.2504"
       y1="978.76178"
       x2="1294.2504"
       y2="-392.15146"
       gradientTransform="matrix(0.1,0,0,-0.1,-5.6663495,72.472841)" />
    <linearGradient
       inkscape:collect="always"
       xlink:href="#linearGradient3998"
       id="linearGradient3159"
       gradientUnits="userSpaceOnUse"
       x1="1294.2504"
       y1="978.76178"
       x2="1294.2504"
       y2="-392.15146"
       gradientTransform="matrix(0.1,0,0,-0.1,-6.2218966,51.955284)" />
  </defs>
  <sodipodi:namedview
     pagecolor="#ffffff"
     bordercolor="#666666"
     borderopacity="1"
     objecttolerance="10"
     gridtolerance="10"
     guidetolerance="10"
     inkscape:pageopacity="0"
     inkscape:pageshadow="2"
     inkscape:window-width="1920"
     inkscape:window-height="1056"
     id="namedview3083"
     showgrid="false"
     inkscape:zoom="6.0534391"
     inkscape:cx="37.38596"
     inkscape:cy="35.848767"
     inkscape:window-x="0"
     inkscape:window-y="24"
     inkscape:window-maximized="1"
     inkscape:current-layer="svg3055"
     showguides="true"
     inkscape:guide-bbox="true"
     fit-margin-top="5"
     fit-margin-left="5"
     fit-margin-right="5"
     fit-margin-bottom="5">
    <sodipodi:guide
       orientation="1,0"
       position="-59.355719,126.66255"
       id="guide4006" />
  </sodipodi:namedview>
  <metadata
     id="metadata3057">
Created by potrace 1.10, written by Peter Selinger 2001-2011
<rdf:RDF>
  <cc:Work
     rdf:about="">
    <dc:format>image/svg+xml</dc:format>
    <dc:type
       rdf:resource="http://purl.org/dc/dcmitype/StillImage" />
    <dc:title></dc:title>
  </cc:Work>
</rdf:RDF>
</metadata>
  <g
     id="g3967"
     transform="matrix(0.19700658,0,0,0.19700658,20.58874,26.239474)">
    <ellipse
       style="fill:#6c7eb7;stroke:url(#radialGradient3870);stroke-width:5.5"
       id="ellipse3860"
       ry="76"
       rx="146"
       cy="80"
       cx="150"
       sodipodi:cx="150"
       sodipodi:cy="80"
       sodipodi:rx="146"
       sodipodi:ry="76"
       d="m 296,80 c 0,41.97364 -65.36643,76 -146,76 C 69.366427,156 4,121.97364 4,80 4,38.026359 69.366427,4 150,4 230.63357,4 296,38.026359 296,80 z" />
    <path
       style="fill-rule:evenodd;stroke:#ffffff;stroke-width:2;stroke-linejoin:round"
       id="p"
       d="m 45,125 16,-81 37,0 c 16,1 24,9 24,23 0,24 -19,38 -36,37 l -18,0 -4,21 -19,0 z m 27,-36 5,-30 13,0 c 7,0 12,3 12,9 -1,17 -9,20 -18,21 l -12,0 z"
       inkscape:connector-curvature="0" />
    <path
       style="stroke:#ffffff;stroke-width:2;stroke-linejoin:round"
       id="h"
       d="m 116,104 16,-81 19,0 -4,21 18,0 c 16,1 22,9 20,19 l -7,41 -20,0 7,-37 c 1,-5 1,-8 -6,-8 l -15,0 -9,45 -19,0 z"
       inkscape:connector-curvature="0" />
    <use
       xlink:href="#p"
       id="p2"
       transform="translate(134,0)"
       x="0"
       y="0"
       width="1"
       height="1" />
  </g>
  <path
     style="fill:url(#linearGradient3156);fill-opacity:1;stroke:none"
     sodipodi:nodetypes="scccccccsccscs"
     inkscape:connector-curvature="0"
     id="path3063"
     d="m 8.6336503,28.67284 c -2.6999998,1.3 -4.6999998,6.000001 -3.8999998,9.300001 0.4,1.4 2.2999998,3.6 4.4999998,5 4.9000007,3 5.5000007,3.9 4.0000007,6.6 -0.9,1.7 -1.7,2 -4.4000007,1.6 -2.5,-0.4 -3.4999998,-0.1 -3.9999998,1 -0.9,2.5 0.7,3.4 6.0000005,3.5 4.1,0 5.2,-0.4 7.2,-2.6 1.4,-1.7 2.3,-4 2.3,-6.1 0,-3.4 -0.1,-3.5 -8,-9.5 -2.1,-1.5 -2.3,-2.2 -1.4,-3.7 0.7,-1.100001 2.3,-1.800001 4.4,-1.800001 3.5,0 5.2,-2.1 2.9,-3.6 -1.9,-1.2 -6.9,-1 -9.6000007,0.3 z" />
</svg>
