<?xml version="1.0" encoding="UTF-8" standalone="no"?>
<svg
   xmlns:dc="http://purl.org/dc/elements/1.1/"
   xmlns:cc="http://creativecommons.org/ns#"
   xmlns:rdf="http://www.w3.org/1999/02/22-rdf-syntax-ns#"
   xmlns:svg="http://www.w3.org/2000/svg"
   xmlns="http://www.w3.org/2000/svg"
   xmlns:xlink="http://www.w3.org/1999/xlink"
   xmlns:sodipodi="http://sodipodi.sourceforge.net/DTD/sodipodi-0.dtd"
   xmlns:inkscape="http://www.inkscape.org/namespaces/inkscape"
   version="1.0"
   width="316.97079"
   height="59.944107"
   viewBox="0 0 253.57664 47.955286"
   preserveAspectRatio="xMidYMid meet"
   id="svg3055"
   inkscape:version="0.48.5 r10040"
   sodipodi:docname="logo.svg"
   inkscape:export-filename="/home/mark/Projects/Supervisor/supervisor.github.io/src/img/logo_big.png"
   inkscape:export-xdpi="227.14999"
   inkscape:export-ydpi="227.14999">
  <defs
     id="defs3085">
    <linearGradient
       x1="150"
       y1="84"
       x2="299"
       y2="84"
       id="linearGradient3998"
       gradientUnits="userSpaceOnUse">
      <stop
         id="stop4000"
         style="stop-color:#dddce9;stop-opacity:1"
         offset="0" />
      <stop
         id="stop4002"
         style="stop-color:#ba0012;stop-opacity:1;"
         offset="0.52317321" />
      <stop
         id="stop4004"
         style="stop-color:#000000;stop-opacity:1"
         offset="1" />
    </linearGradient>
    <radialGradient
       gradientTransform="matrix(1.5089497,0,0,1.3582164,-39.028917,76.957747)"
       gradientUnits="userSpaceOnUse"
       xlink:href="#linearGradient3798"
       id="radialGradient3870"
       fy="-48.544521"
       fx="77.914261"
       r="146"
       cy="-48.544521"
       cx="77.914261" />
    <linearGradient
       gradientUnits="userSpaceOnUse"
       id="linearGradient3798"
       y2="84"
       x2="299"
       y1="84"
       x1="150">
      <stop
         offset="0"
         style="stop-color:#dddce9;stop-opacity:1"
         id="stop3800" />
      <stop
         offset="0.37"
         style="stop-color:#5664a3;stop-opacity:1"
         id="stop3802" />
      <stop
         offset="1"
         style="stop-color:#000000;stop-opacity:1"
         id="stop3804" />
    </linearGradient>
    <linearGradient
       inkscape:collect="always"
       xlink:href="#linearGradient3998"
       id="linearGradient3996"
       x1="1294.2504"
       y1="978.76178"
       x2="1294.2504"
       y2="-392.15146"
       gradientUnits="userSpaceOnUse" />
    <linearGradient
       inkscape:collect="always"
       xlink:href="#linearGradient3998"
       id="linearGradient4008"
       gradientUnits="userSpaceOnUse"
       x1="1294.2504"
       y1="978.76178"
       x2="1294.2504"
       y2="-392.15146" />
    <linearGradient
       inkscape:collect="always"
       xlink:href="#linearGradient3998"
       id="linearGradient4010"
       gradientUnits="userSpaceOnUse"
       x1="1294.2504"
       y1="978.76178"
       x2="1294.2504"
       y2="-392.15146" />
    <linearGradient
       inkscape:collect="always"
       xlink:href="#linearGradient3998"
       id="linearGradient4012"
       gradientUnits="userSpaceOnUse"
       x1="1294.2504"
       y1="978.76178"
       x2="1294.2504"
       y2="-392.15146" />
    <linearGradient
       inkscape:collect="always"
       xlink:href="#linearGradient3998"
       id="linearGradient4014"
       gradientUnits="userSpaceOnUse"
       x1="1294.2504"
       y1="978.76178"
       x2="1294.2504"
       y2="-392.15146" />
    <linearGradient
       inkscape:collect="always"
       xlink:href="#linearGradient3998"
       id="linearGradient4016"
       gradientUnits="userSpaceOnUse"
       x1="1294.2504"
       y1="978.76178"
       x2="1294.2504"
       y2="-392.15146" />
    <linearGradient
       inkscape:collect="always"
       xlink:href="#linearGradient3998"
       id="linearGradient4018"
       gradientUnits="userSpaceOnUse"
       x1="1294.2504"
       y1="978.76178"
       x2="1294.2504"
       y2="-392.15146" />
    <linearGradient
       inkscape:collect="always"
       xlink:href="#linearGradient3998"
       id="linearGradient4020"
       gradientUnits="userSpaceOnUse"
       x1="1294.2504"
       y1="978.76178"
       x2="1294.2504"
       y2="-392.15146" />
    <linearGradient
       inkscape:collect="always"
       xlink:href="#linearGradient3998"
       id="linearGradient4022"
       gradientUnits="userSpaceOnUse"
       x1="1294.2504"
       y1="978.76178"
       x2="1294.2504"
       y2="-392.15146" />
    <linearGradient
       inkscape:collect="always"
       xlink:href="#linearGradient3998"
       id="linearGradient4024"
       gradientUnits="userSpaceOnUse"
       x1="1294.2504"
       y1="978.76178"
       x2="1294.2504"
       y2="-392.15146" />
    <linearGradient
       inkscape:collect="always"
       xlink:href="#linearGradient3998"
       id="linearGradient4026"
       gradientUnits="userSpaceOnUse"
       x1="1294.2504"
       y1="978.76178"
       x2="1294.2504"
       y2="-392.15146" />
    <linearGradient
       inkscape:collect="always"
       xlink:href="#linearGradient3998"
       id="linearGradient4028"
       gradientUnits="userSpaceOnUse"
       x1="1294.2504"
       y1="978.76178"
       x2="1294.2504"
       y2="-392.15146" />
  </defs>
  <sodipodi:namedview
     pagecolor="#ffffff"
     bordercolor="#666666"
     borderopacity="1"
     objecttolerance="10"
     gridtolerance="10"
     guidetolerance="10"
     inkscape:pageopacity="0"
     inkscape:pageshadow="2"
     inkscape:window-width="1920"
     inkscape:window-height="1056"
     id="namedview3083"
     showgrid="false"
     inkscape:zoom="3.2569531"
     inkscape:cx="148.02015"
     inkscape:cy="-19.579589"
     inkscape:window-x="0"
     inkscape:window-y="24"
     inkscape:window-maximized="1"
     inkscape:current-layer="svg3055"
     showguides="true"
     inkscape:guide-bbox="true"
     fit-margin-top="5"
     fit-margin-left="5"
     fit-margin-right="5"
     fit-margin-bottom="5">
    <sodipodi:guide
       orientation="1,0"
       position="154.00392,131.41488"
       id="guide4006" />
  </sodipodi:namedview>
  <metadata
     id="metadata3057">
Created by potrace 1.10, written by Peter Selinger 2001-2011
<rdf:RDF>
  <cc:Work
     rdf:about="">
    <dc:format>image/svg+xml</dc:format>
    <dc:type
       rdf:resource="http://purl.org/dc/dcmitype/StillImage" />
    <dc:title></dc:title>
  </cc:Work>
</rdf:RDF>
</metadata>
  <g
     transform="matrix(0.1,0,0,-0.1,-6.2218966,51.955284)"
     id="g3059"
     style="fill:url(#linearGradient3996);fill-opacity:1;stroke:none">
    <path
       d="m 1350,464 c -18,-21 9,-49 39,-39 25,7 28,40 5,49 -23,9 -30,8 -44,-10 z"
       id="path3061"
       inkscape:connector-curvature="0"
       style="fill:url(#linearGradient4008);fill-opacity:1" />
    <path
       d="m 143,438 c -27,-13 -47,-60 -39,-93 4,-14 23,-36 45,-50 49,-30 55,-39 40,-66 -9,-17 -17,-20 -44,-16 -25,4 -35,1 -40,-10 -9,-25 7,-34 60,-35 41,0 52,4 72,26 14,17 23,40 23,61 0,34 -1,35 -80,95 -21,15 -23,22 -14,37 7,11 23,18 44,18 35,0 52,21 29,36 -19,12 -69,10 -96,-3 z"
       id="path3063"
       inkscape:connector-curvature="0"
       sodipodi:nodetypes="scccccccsccscs"
       style="fill:url(#linearGradient4010);fill-opacity:1" />
    <path
       d="m 309,383 c 0,-5 0,-46 1,-93 1,-105 14,-122 87,-122 94,0 93,-1 93,118 l 0,104 -36,0 -36,0 4,-90 4,-90 -28,0 -28,0 0,90 0,90 -30,0 c -16,0 -30,-3 -31,-7 z"
       id="path3065"
       inkscape:connector-curvature="0"
       style="fill:url(#linearGradient4012);fill-opacity:1" />
    <path
       d="m 557,382 c -16,-7 -18,-24 -20,-155 l -2,-147 34,0 34,0 -5,45 -6,45 33,0 c 19,0 41,3 50,6 25,10 45,58 45,108 0,65 -30,97 -96,102 -27,2 -57,0 -67,-4 z m 81,-38 c 18,-12 22,-25 22,-68 0,-56 -15,-80 -46,-74 -13,2 -16,16 -16,76 1,39 1,74 1,77 1,9 16,5 39,-11 z"
       id="path3067"
       inkscape:connector-curvature="0"
       sodipodi:nodetypes="cccccccscscccscccc"
       style="fill:url(#linearGradient4014);fill-opacity:1" />
    <path
       d="m 789,361 c -54,-54 -34,-169 33,-190 34,-10 112,-2 109,12 0,4 -1,13 -1,20 0,9 -12,11 -40,9 -41,-4 -70,10 -70,33 0,8 22,16 60,20 55,6 60,9 60,31 0,32 -25,80 -45,88 -38,14 -77,6 -106,-23 z m 85,-17 c 30,-29 20,-52 -24,-56 -36,-3 -40,-1 -40,19 0,12 10,29 22,37 27,19 23,19 42,0 z"
       id="path3069"
       inkscape:connector-curvature="0"
       sodipodi:nodetypes="sccscscscsccscc"
       style="fill:url(#linearGradient4016);fill-opacity:1" />
    <path
       d="m 1008,383 c -16,-4 -18,-18 -18,-109 l 0,-104 30,0 30,0 0,90 c 0,89 0,90 25,90 18,0 25,5 25,20 0,17 -6,20 -37,19 -21,-1 -46,-3 -55,-6 z"
       id="path3071"
       inkscape:connector-curvature="0"
       style="fill:url(#linearGradient4018);fill-opacity:1" />
    <path
       d="m 1120,379 c 0,-6 14,-56 31,-110 31,-97 32,-99 63,-99 31,0 31,1 60,98 16,53 31,103 33,110 4,8 -5,12 -24,12 -29,0 -30,-2 -46,-75 -27.5035,-127.37313 -23.1018,-115.899 -43,10 -15,61 -18,65 -45,65 -16,0 -29,-5 -29,-11 z"
       id="path3073"
       inkscape:connector-curvature="0"
       sodipodi:nodetypes="scsccsccss"
       style="fill:url(#linearGradient4020);fill-opacity:1" />
    <path
       d="m 1350,388 c 0,-2 -2,-51 -3,-111 l -2,-107 33,0 32,0 0,110 0,110 -30,0 c -16,0 -30,-1 -30,-2 z"
       id="path3075"
       inkscape:connector-curvature="0"
       sodipodi:nodetypes="sccccccss"
       style="fill:url(#linearGradient4022);fill-opacity:1" />
    <path
       d="m 1470,370 c -11,-11 -20,-33 -20,-50 0,-24 8,-35 40,-55 49,-31 46,-60 -6,-52 -26,4 -33,2 -37,-14 -6,-21 1,-26 43,-32 63,-10 114,39 92,87 -6,14 -25,32 -42,41 -19,10 -30,23 -30,36 0,18 5,21 30,17 20,-3 31,0 35,10 13,35 -72,45 -105,12 z"
       id="path3077"
       inkscape:connector-curvature="0"
       style="fill:url(#linearGradient4024);fill-opacity:1" />
    <path
       d="m 1654,367 c -34,-30 -45,-108 -20,-155 19,-37 70,-57 110,-43 56,22 82,110 51,171 -28,55 -94,67 -141,27 z m 90,-39 c 11,-42 6,-96 -10,-112 -8,-9 -17,-16 -19,-16 -2,0 -11,7 -19,16 -19,19 -22,104 -4,122 19,19 45,14 52,-10 z"
       id="path3079"
       inkscape:connector-curvature="0"
       style="fill:url(#linearGradient4026);fill-opacity:1" />
    <path
       d="m 1873,383 c -22,-4 -23,-8 -23,-109 l 0,-104 30,0 30,0 0,90 c 0,88 0,90 24,90 15,0 26,7 29,20 4,17 0,20 -31,19 -21,-1 -47,-4 -59,-6 z"
       id="path3081"
       inkscape:connector-curvature="0"
       sodipodi:nodetypes="cscccssccc"
       style="fill:url(#linearGradient4028);fill-opacity:1" />
  </g>
  <g
     id="g3967"
     transform="matrix(0.19700658,0,0,0.19700658,190.72091,8.8786237)">
    <ellipse
       style="fill:#6c7eb7;stroke:url(#radialGradient3870);stroke-width:5.5"
       id="ellipse3860"
       ry="76"
       rx="146"
       cy="80"
       cx="150"
       sodipodi:cx="150"
       sodipodi:cy="80"
       sodipodi:rx="146"
       sodipodi:ry="76"
       d="m 296,80 c 0,41.97364 -65.36643,76 -146,76 C 69.366427,156 4,121.97364 4,80 4,38.026359 69.366427,4 150,4 230.63357,4 296,38.026359 296,80 z" />
    <path
       style="fill-rule:evenodd;stroke:#ffffff;stroke-width:2;stroke-linejoin:round"
       id="p"
       d="m 45,125 16,-81 37,0 c 16,1 24,9 24,23 0,24 -19,38 -36,37 l -18,0 -4,21 -19,0 z m 27,-36 5,-30 13,0 c 7,0 12,3 12,9 -1,17 -9,20 -18,21 l -12,0 z"
       inkscape:connector-curvature="0" />
    <path
       style="stroke:#ffffff;stroke-width:2;stroke-linejoin:round"
       id="h"
       d="m 116,104 16,-81 19,0 -4,21 18,0 c 16,1 22,9 20,19 l -7,41 -20,0 7,-37 c 1,-5 1,-8 -6,-8 l -15,0 -9,45 -19,0 z"
       inkscape:connector-curvature="0" />
    <use
       xlink:href="#p"
       id="p2"
       transform="translate(134,0)"
       x="0"
       y="0"
       width="1"
       height="1" />
  </g>
</svg>
